<svg width="240" height="60" viewBox="0 0 240 60" fill="none" xmlns="http://www.w3.org/2000/svg">
  <path d="M16.3889 10H50.5556V50H16.3889V10Z" fill="#0057B7"/>
  <path d="M33.4722 5L55 30L33.4722 55L12 30L33.4722 5Z" fill="#D9A72E"/>
  <path d="M68.264 20.384H75.736C78.104 20.384 79.912 20.96 81.16 22.112C82.424 23.248 83.056 24.832 83.056 26.864C83.056 28.896 82.424 30.48 81.16 31.616C79.912 32.752 78.104 33.328 75.736 33.328H71.8V42.8H68.264V20.384ZM75.544 30.336C77.032 30.336 78.136 29.992 78.856 29.304C79.576 28.616 79.936 27.632 79.936 26.352C79.936 25.088 79.576 24.112 78.856 23.424C78.136 22.736 77.032 22.392 75.544 22.392H71.8V30.336H75.544Z" fill="#0057B7"/>
  <path d="M91.4223 20.384H94.9583V40.792H106.734V42.8H91.4223V20.384Z" fill="#0057B7"/>
  <path d="M115.54 20.384H119.076V37.448L129.54 20.384H132.732L123.34 35.848L133.084 42.8H129.7L119.076 35.08V42.8H115.54V20.384Z" fill="#0057B7"/>
  <path d="M136.501 20.384H151.333V22.392H139.965V30.336H149.605V32.344H139.965V40.792H151.557V42.8H136.501V20.384Z" fill="#0057B7"/>
  <path d="M157.918 20.384H161.454V31.552C161.454 33.984 161.998 35.8 163.086 37C164.174 38.2 165.726 38.8 167.742 38.8C169.758 38.8 171.31 38.2 172.398 37C173.486 35.8 174.03 33.984 174.03 31.552V20.384H177.566V31.552C177.566 34.848 176.726 37.352 175.046 39.064C173.382 40.776 170.958 41.632 167.774 41.632C164.59 41.632 162.15 40.776 160.454 39.064C158.774 37.352 157.934 34.848 157.934 31.552V20.384H157.918Z" fill="#0057B7"/>
  <path d="M186.477 32.568V42.8H182.941V20.384H186.477V30.592L196.877 20.384H201.069L190.509 30.336L201.565 42.8H197.373L188.077 32.568H186.477Z" fill="#0057B7"/>
  <path d="M191.8 16C191.8 17.6569 190.457 19 188.8 19C187.143 19 185.8 17.6569 185.8 16C185.8 14.3431 187.143 13 188.8 13C190.457 13 191.8 14.3431 191.8 16Z" fill="#D9A72E"/>
  <text x="69" y="53" font-family="Arial" font-size="8" fill="#171717">NEGÓCIOS IMOBILIÁRIOS</text>
</svg> 