<?xml version="1.0" encoding="UTF-8"?>
<svg xmlns="http://www.w3.org/2000/svg" width="200" height="60" viewBox="0 0 200 60" fill="none">
  <path d="M20.5 10H40.5V15H36V50H25V15H20.5V10Z" fill="#054ADA"/>
  <path d="M45 10H65.5L70 30L74.5 10H95V15H90.5V50H79.5V15H79L71.5 50H68.5L61 15H60.5V50H49.5V15H45V10Z" fill="#054ADA"/>
  <path d="M100 10H120.5V15H116V28H132V15H127.5V10H148V15H143.5V50H132.5V33H116V50H105V15H100V10Z" fill="#054ADA"/>
  <path d="M153 10H173.5L180 50H169L168.5 45H158L157.5 50H146.5L153 10ZM167 35L163.5 15H163L159.5 35H167Z" fill="#054ADA"/>
  <path d="M181 10H192V28L202 10H213.5L202.5 30L214 50H202.5L192 32V50H181V10Z" fill="#054ADA"/>
  <path d="M158 60C158 55.0294 162.029 51 167 51H173C177.971 51 182 55.0294 182 60H158Z" fill="#054ADA"/>
</svg> 