<svg width="240" height="60" viewBox="0 0 240 60" fill="none" xmlns="http://www.w3.org/2000/svg">
  <path d="M16.3889 10H50.5556V50H16.3889V10Z" fill="#0057B7"/>
  <path d="M33.4722 5L55 30L33.4722 55L12 30L33.4722 5Z" fill="#D9A72E"/>
  <path d="M68.264 20.384H75.736C78.104 20.384 79.912 20.96 81.16 22.112C82.424 23.248 83.056 24.832 83.056 26.864C83.056 28.896 82.424 30.48 81.16 31.616C79.912 32.752 78.104 33.328 75.736 33.328H71.8V42.8H68.264V20.384ZM75.544 30.336C77.032 30.336 78.136 29.992 78.856 29.304C79.576 28.616 79.936 27.632 79.936 26.352C79.936 25.088 79.576 24.112 78.856 23.424C78.136 22.736 77.032 22.392 75.544 22.392H71.8V30.336H75.544Z" fill="#0057B7"/>
  <path d="M91.4223 20.384H94.9583V40.792H106.734V42.8H91.4223V20.384Z" fill="#0057B7"/>
  <path d="M115.54 20.384H119.076V37.448L129.54 20.384H132.732L123.34 35.848L133.084 42.8H129.7L119.076 35.08V42.8H115.54V20.384Z" fill="#0057B7"/>
  <path d="M136.501 20.384H151.333V22.392H139.965V30.336H149.605V32.344H139.965V40.792H151.557V42.8H136.501V20.384Z" fill="#0057B7"/>
  <path d="M157.918 20.384H161.454V31.552C161.454 33.984 161.998 35.8 163.086 37C164.174 38.2 165.726 38.8 167.742 38.8C169.758 38.8 171.31 38.2 172.398 37C173.486 35.8 174.03 33.984 174.03 31.552V20.384H177.566V31.552C177.566 34.848 176.726 37.352 175.046 39.064C173.382 40.776 170.958 41.632 167.774 41.632C164.59 41.632 162.15 40.776 160.454 39.064C158.774 37.352 157.934 34.848 157.934 31.552V20.384H157.918Z" fill="#0057B7"/>
  <path d="M186.477 32.568V42.8H182.941V20.384H186.477V30.592L196.877 20.384H201.069L190.509 30.336L201.565 42.8H197.373L188.077 32.568H186.477Z" fill="#0057B7"/>
  <path d="M191.8 16C191.8 17.6569 190.457 19 188.8 19C187.143 19 185.8 17.6569 185.8 16C185.8 14.3431 187.143 13 188.8 13C190.457 13 191.8 14.3431 191.8 16Z" fill="#D9A72E"/>
  <path d="M69.152 53.992H69.976C70.312 53.992 70.568 53.92 70.744 53.776C70.924 53.628 71.016 53.424 71.016 53.16C71.016 52.896 70.924 52.692 70.744 52.544C70.568 52.396 70.312 52.324 69.976 52.324H69.152V53.992ZM69.152 51.56H69.936C70.264 51.56 70.504 51.492 70.66 51.36C70.82 51.224 70.9 51.032 70.9 50.788C70.9 50.548 70.82 50.356 70.66 50.22C70.504 50.084 70.264 50.016 69.936 50.016H69.152V51.56ZM68.4 49.296H70.032C70.588 49.296 71.02 49.424 71.328 49.68C71.636 49.932 71.792 50.284 71.792 50.736C71.792 51.228 71.588 51.58 71.18 51.792C71.732 51.996 72.008 52.404 72.008 53.016C72.008 53.496 71.84 53.876 71.504 54.152C71.172 54.428 70.708 54.568H68.4V49.296Z" fill="#171717"/>
  <path d="M77.5996 53.264H76.1796L75.9076 54.568H75.1556L76.3636 49.296H77.4236L78.6436 54.568H77.8796L77.5996 53.264ZM77.4636 52.588L76.8996 50.232L76.3396 52.588H77.4636Z" fill="#171717"/>
  <path d="M82.7281 49.296H84.3921C84.9481 49.296 85.3921 49.444 85.7201 49.744C86.0521 50.04 86.2201 50.452 86.2201 50.976C86.2201 51.5 86.0521 51.908 85.7201 52.208C85.3921 52.508 84.9481 52.656 84.3921 52.656H83.4801V54.568H82.7281V49.296ZM84.3321 51.968C84.6841 51.968 84.9521 51.884 85.1401 51.712C85.3281 51.54 85.4241 51.296 85.4241 50.976C85.4241 50.656 85.3281 50.408 85.1401 50.236C84.9521 50.064 84.6841 49.976 84.3321 49.976H83.4801V51.968H84.3321Z" fill="#171717"/>
  <path d="M90.9957 53.888V54.568H88.2677V49.296H90.9477V49.972H89.0197V51.596H90.7197V52.26H89.0197V53.888H90.9957Z" fill="#171717"/>
  <path d="M95.4713 54.724C95.1033 54.54 94.8233 54.272 94.6353 53.928C94.4473 53.584 94.3553 53.18 94.3553 52.72C94.3553 52.26 94.4473 51.856 94.6353 51.512C94.8233 51.168 95.0993 50.9 95.4673 50.712C95.8353 50.52 96.2553 50.424 96.7353 50.424C97.1113 50.424 97.4433 50.492 97.7353 50.624C98.0273 50.756 98.2713 50.952 98.4673 51.208L97.9313 51.644C97.5873 51.252 97.1993 51.056 96.7593 51.056C96.4433 51.056 96.1633 51.12 95.9193 51.248C95.6753 51.376 95.4873 51.56 95.3513 51.8C95.2153 52.036 95.1473 52.312 95.1473 52.628C95.1473 52.94 95.2153 53.216 95.3513 53.456C95.4873 53.692 95.6753 53.876 95.9193 54.008C96.1633 54.136 96.4433 54.2 96.7593 54.2C97.1993 54.2 97.5873 54.004 97.9313 53.612L98.4673 54.048C98.2713 54.304 98.0253 54.5 97.7313 54.636C97.4373 54.772 97.1033 54.84 96.7313 54.84C96.2513 54.84 95.8393 54.8 95.4713 54.724Z" fill="#171717"/>
  <path d="M100.984 49.296H101.736V54.568H100.984V49.296Z" fill="#171717"/>
  <path d="M106.232 53.888V54.568H103.504V49.296H106.184V49.972H104.256V51.596H105.956V52.26H104.256V53.888H106.232Z" fill="#171717"/>
  <path d="M111.388 54.328C111.2 54.496 110.972 54.628 110.7 54.724C110.432 54.82 110.144 54.868 109.836 54.868C109.468 54.868 109.14 54.792 108.848 54.644C108.56 54.496 108.336 54.292 108.176 54.032C108.016 53.772 107.936 53.484 107.936 53.172C107.936 52.864 108.024 52.596 108.2 52.364C108.376 52.132 108.624 51.968 108.944 51.868C108.728 51.752 108.564 51.616 108.452 51.46C108.344 51.304 108.288 51.112 108.288 50.884C108.288 50.604 108.36 50.356 108.508 50.14C108.656 49.924 108.864 49.76 109.132 49.644C109.4 49.528 109.712 49.472 110.068 49.472C110.384 49.472 110.668 49.532 110.92 49.652C111.172 49.768 111.372 49.928 111.52 50.132C111.672 50.336 111.748 50.568 111.748 50.824C111.748 51.12 111.66 51.364 111.488 51.56C111.316 51.756 111.096 51.868 110.832 51.896L111.516 52.276C111.588 52.1 111.644 51.9 111.688 51.68L112.372 51.952C112.3 52.264 112.192 52.536 112.048 52.772L112.78 53.16L112.436 53.688L111.7 53.268L111.388 54.328ZM110.96 52.968L109.984 52.348C109.768 52.412 109.596 52.516 109.476 52.66C109.356 52.804 109.296 52.98 109.296 53.188C109.296 53.444 109.388 53.656 109.576 53.82C109.768 53.984 110.004 54.064 110.288 54.064C110.596 54.064 110.852 54 111.06 53.868C111.272 53.732 111.42 53.564 111.512 53.36L110.96 52.968ZM110.46 51.328C110.708 51.308 110.9 51.228 111.036 51.088C111.172 50.944 111.24 50.764 111.24 50.552C111.24 50.348 111.168 50.188 111.024 50.068C110.884 49.944 110.704 49.884 110.48 49.884C110.252 49.884 110.06 49.944 109.904 50.068C109.752 50.192 109.676 50.352 109.676 50.552C109.676 50.732 109.732 50.892 109.848 51.028C109.964 51.16 110.156 51.264 110.412 51.344L110.46 51.328Z" fill="#171717"/>
  <path d="M117.107 53.888V54.568H114.379V49.296H117.059V49.972H115.131V51.596H116.831V52.26H115.131V53.888H117.107Z" fill="#171717"/>
  <path d="M121.295 49.296V54.568H120.543V52.156H118.351V54.568H117.595V49.296H118.351V51.476H120.543V49.296H121.295Z" fill="#171717"/>
  <path d="M123.068 49.296H123.82V54.568H123.068V49.296Z" fill="#171717"/>
  <path d="M128.314 49.296H129.066V54.568H128.374L126.346 50.432V54.568H125.594V49.296H126.318L128.314 53.388V49.296Z" fill="#171717"/>
  <path d="M134.022 49.296V54.568H133.27V51.648L131.622 54.568H131.01L129.382 51.66V54.568H128.63V49.296H129.494L131.33 52.6L133.154 49.296H134.022Z" fill="#171717"/>
  <path d="M138.184 53.888V54.568H135.456V49.296H138.136V49.972H136.208V51.596H137.908V52.26H136.208V53.888H138.184Z" fill="#171717"/>
  <path d="M143.361 49.296V54.568H142.657L140.605 50.728V54.568H139.853V49.296H140.569L142.613 53.136V49.296H143.361Z" fill="#171717"/>
  <path d="M146.402 53.888V54.568H143.674V49.296H146.354V49.972H144.426V51.596H146.126V52.26H144.426V53.888H146.402Z" fill="#171717"/>
  <path d="M147.898 49.296H148.65V54.568H147.898V49.296Z" fill="#171717"/>
  <path d="M153.936 49.296H154.688V54.568H153.996L151.968 50.432V54.568H151.216V49.296H151.94L153.936 53.388V49.296Z" fill="#171717"/>
  <path d="M156.658 54.568H155.906V49.296H156.658V54.568Z" fill="#171717"/>
  <path d="M160.879 49.296H161.631V54.568H160.939L158.911 50.432V54.568H158.159V49.296H158.883L160.879 53.388V49.296Z" fill="#171717"/>
  <path d="M164.301 53.888V54.568H161.573V49.296H164.253V49.972H162.325V51.596H164.025V52.26H162.325V53.888H164.301Z" fill="#171717"/>
  <path d="M168.009 49.296H168.761V54.568H168.009V52.156H165.817V54.568H165.061V49.296H165.817V51.476H168.009V49.296Z" fill="#171717"/>
  <path d="M173.358 54.568H172.606L170.574 49.296H171.394L172.998 53.624L174.602 49.296H175.394L173.358 54.568Z" fill="#171717"/>
  <path d="M179.333 52.944C179.333 53.184 179.365 53.384 179.433 53.544C179.501 53.7 179.597 53.82 179.717 53.9C179.841 53.98 179.985 54.02 180.149 54.02C180.313 54.02 180.453 53.98 180.573 53.9C180.697 53.82 180.793 53.7 180.861 53.544C180.933 53.384 180.969 53.184 180.969 52.944V49.296H181.721V52.96C181.721 53.336 181.641 53.66 181.485 53.932C181.329 54.204 181.109 54.412 180.829 54.56C180.553 54.708 180.241 54.784 179.897 54.784C179.549 54.784 179.237 54.708 178.957 54.56C178.681 54.412 178.465 54.204 178.305 53.932C178.149 53.66 178.073 53.336 178.073 52.96V49.296H178.825V52.944H179.333Z" fill="#171717"/>
  <path d="M185.934 53.888V54.568H183.206V49.296H185.886V49.972H183.958V51.596H185.658V52.26H183.958V53.888H185.934Z" fill="#171717"/>
  <path d="M191.11 54.328C190.922 54.496 190.694 54.628 190.422 54.724C190.154 54.82 189.866 54.868 189.558 54.868C189.19 54.868 188.862 54.792 188.57 54.644C188.282 54.496 188.058 54.292 187.898 54.032C187.738 53.772 187.658 53.484 187.658 53.172C187.658 52.864 187.746 52.596 187.922 52.364C188.098 52.132 188.346 51.968 188.666 51.868C188.45 51.752 188.286 51.616 188.174 51.46C188.066 51.304 188.01 51.112 188.01 50.884C188.01 50.604 188.082 50.356 188.23 50.14C188.378 49.924 188.586 49.76 188.854 49.644C189.122 49.528 189.434 49.472 189.79 49.472C190.106 49.472 190.39 49.532 190.642 49.652C190.894 49.768 191.094 49.928 191.242 50.132C191.394 50.336 191.47 50.568 191.47 50.824C191.47 51.12 191.382 51.364 191.21 51.56C191.038 51.756 190.818 51.868 190.554 51.896L191.238 52.276C191.31 52.1 191.366 51.9 191.41 51.68L192.094 51.952C192.022 52.264 191.914 52.536 191.77 52.772L192.502 53.16L192.158 53.688L191.422 53.268L191.11 54.328ZM190.682 52.968L189.706 52.348C189.49 52.412 189.318 52.516 189.198 52.66C189.078 52.804 189.018 52.98 189.018 53.188C189.018 53.444 189.11 53.656 189.298 53.82C189.49 53.984 189.726 54.064 190.01 54.064C190.318 54.064 190.574 54 190.782 53.868C190.994 53.732 191.142 53.564 191.234 53.36L190.682 52.968ZM190.182 51.328C190.43 51.308 190.622 51.228 190.758 51.088C190.894 50.944 190.962 50.764 190.962 50.552C190.962 50.348 190.89 50.188 190.746 50.068C190.606 49.944 190.426 49.884 190.202 49.884C189.974 49.884 189.782 49.944 189.626 50.068C189.474 50.192 189.398 50.352 189.398 50.552C189.398 50.732 189.454 50.892 189.57 51.028C189.686 51.16 189.878 51.264 190.134 51.344L190.182 51.328Z" fill="#171717"/>
  <path d="M196.977 49.296H197.729V54.568H196.977V49.296Z" fill="#171717"/>
  <path d="M202.226 53.888V54.568H199.498V49.296H202.178V49.972H200.25V51.596H201.95V52.26H200.25V53.888H202.226Z" fill="#171717"/>
  <path d="M204.196 49.296H206.34C206.732 49.296 207.064 49.368 207.336 49.512C207.608 49.656 207.816 49.856 207.96 50.108C208.104 50.36 208.176 50.648 208.176 50.976C208.176 51.252 208.116 51.484 208 51.672C207.884 51.86 207.728 52.012 207.536 52.128C207.348 52.244 207.148 52.336 206.936 52.404L208.456 54.568H207.556L206.116 52.496H204.948V54.568H204.196V49.296ZM206.292 51.84C206.572 51.84 206.8 51.772 206.968 51.636C207.14 51.5 207.224 51.316 207.224 51.084C207.224 50.86 207.136 50.684 206.964 50.552C206.792 50.42 206.568 50.352 206.292 50.352H204.948V51.84H206.292Z" fill="#171717"/>
  <path d="M212.332 53.888V54.568H209.604V49.296H212.284V49.972H210.356V51.596H212.056V52.26H210.356V53.888H212.332Z" fill="#171717"/>
  <path d="M216.508 54.328C216.32 54.496 216.092 54.628 215.82 54.724C215.552 54.82 215.264 54.868 214.956 54.868C214.588 54.868 214.26 54.792 213.968 54.644C213.68 54.496 213.456 54.292 213.296 54.032C213.136 53.772 213.056 53.484 213.056 53.172C213.056 52.864 213.144 52.596 213.32 52.364C213.496 52.132 213.744 51.968 214.064 51.868C213.848 51.752 213.684 51.616 213.572 51.46C213.464 51.304 213.408 51.112 213.408 50.884C213.408 50.604 213.48 50.356 213.628 50.14C213.776 49.924 213.984 49.76 214.252 49.644C214.52 49.528 214.832 49.472 215.188 49.472C215.504 49.472 215.788 49.532 216.04 49.652C216.292 49.768 216.492 49.928 216.64 50.132C216.792 50.336 216.868 50.568 216.868 50.824C216.868 51.12 216.78 51.364 216.608 51.56C216.436 51.756 216.216 51.868 215.952 51.896L216.636 52.276C216.708 52.1 216.764 51.9 216.808 51.68L217.492 51.952C217.42 52.264 217.312 52.536 217.168 52.772L217.9 53.16L217.556 53.688L216.82 53.268L216.508 54.328ZM216.08 52.968L215.104 52.348C214.888 52.412 214.716 52.516 214.596 52.66C214.476 52.804 214.416 52.98 214.416 53.188C214.416 53.444 214.508 53.656 214.696 53.82C214.888 53.984 215.124 54.064 215.408 54.064C215.716 54.064 215.972 54 216.18 53.868C216.392 53.732 216.54 53.564 216.632 53.36L216.08 52.968ZM215.58 51.328C215.828 51.308 216.02 51.228 216.156 51.088C216.292 50.944 216.36 50.764 216.36 50.552C216.36 50.348 216.288 50.188 216.144 50.068C216.004 49.944 215.824 49.884 215.6 49.884C215.372 49.884 215.18 49.944 215.024 50.068C214.872 50.192 214.796 50.352 214.796 50.552C214.796 50.732 214.852 50.892 214.968 51.028C215.084 51.16 215.276 51.264 215.532 51.344L215.58 51.328Z" fill="#171717"/>
</svg> 